<svg width="1500" height="1500" viewBox="0 0 1500 1500" fill="none" xmlns="http://www.w3.org/2000/svg">
<path d="M716.07 232.524C716.07 219.953 727.807 210.6 740.111 213.546C780.897 223.31 840.143 238.857 892.411 255.546C918.521 263.883 943.14 272.583 962.931 281.069C972.821 285.309 981.72 289.586 989.088 293.839C996.238 297.965 1002.86 302.58 1007.4 307.753L1007.89 308.309L1008.32 308.916C1017.65 322.286 1025.13 340.768 1031.26 358.284C1034.39 367.194 1037.27 376.177 1039.92 384.515C1040.22 385.465 1040.52 386.405 1040.81 387.335L1040.81 387.341L1040.81 387.345C1043.14 394.653 1045.26 401.332 1047.26 407.164L1022.09 415.83C1019.97 409.67 1017.74 402.656 1015.44 395.404L1015.44 395.393L1015.12 394.406C1014.93 393.798 1014.74 393.189 1014.54 392.579C1011.9 384.25 1009.12 375.594 1006.14 367.087C1000.21 350.159 993.862 335 986.962 324.848C985.151 322.975 981.622 320.27 975.78 316.898C969.644 313.358 961.78 309.544 952.439 305.539C933.769 297.534 910.058 289.129 884.313 280.909C836.487 265.639 782.503 251.276 742.695 241.562V557.776C762.039 556.98 786.447 556.193 808.684 555.924C822.678 555.755 835.956 555.789 846.622 556.166C851.944 556.354 856.772 556.633 860.79 557.038C864.423 557.405 868.611 557.976 871.907 559.167L862.864 584.208C862.88 584.214 862.863 584.21 862.811 584.199C862.524 584.135 861.161 583.835 858.12 583.529C854.909 583.205 850.718 582.952 845.681 582.774C835.629 582.418 822.831 582.38 809.006 582.547C786.663 582.817 762.011 583.62 742.695 584.423V800.657H716.07V232.524Z" fill="white"/>
<path d="M643.127 248.223C652.832 247.878 657.484 256.097 657.71 261.842L678.881 800.134L652.277 801.181L631.673 277.309C630.525 277.623 629.306 277.97 628.015 278.353C620.156 280.68 610.55 284.026 599.739 288.171C578.134 296.454 552.279 307.71 526.985 319.784C501.675 331.866 477.176 344.649 458.228 355.952C448.735 361.615 440.855 366.776 435.033 371.184C432.122 373.389 429.89 375.28 428.289 376.839C426.64 378.445 426.118 379.257 426.087 379.305L426.086 379.307C426.086 379.307 426.085 379.31 426.081 379.32C426.017 379.477 425.349 381.113 424.282 385.341C423.266 389.368 422.123 394.745 420.874 401.379C418.381 414.622 415.578 432.26 412.599 452.867C406.645 494.048 400.062 546.553 393.925 598.326C387.79 650.077 382.112 701.008 377.966 739.007C375.894 758.004 374.205 773.766 373.034 784.776C372.449 790.281 371.993 794.599 371.684 797.539C371.529 799.009 371.411 800.134 371.332 800.892L371.213 802.033C371.212 802.036 371.212 802.037 357.972 800.657C344.731 799.278 344.731 799.276 344.732 799.273L344.852 798.12C344.932 797.358 345.05 796.228 345.206 794.753C345.516 791.804 345.973 787.477 346.559 781.961C347.732 770.93 349.423 755.145 351.499 736.119C355.65 698.072 361.338 647.054 367.486 595.192C373.631 543.351 380.245 490.579 386.248 449.057C389.248 428.314 392.113 410.244 394.709 396.454C396.005 389.57 397.262 383.6 398.467 378.826C399.557 374.508 400.917 369.822 402.757 366.476C406.075 360.444 412.599 354.775 418.961 349.958C425.87 344.727 434.667 339.005 444.588 333.087C464.47 321.227 489.752 308.056 515.516 295.757C541.297 283.45 567.81 271.898 590.208 263.311C601.398 259.021 611.702 255.417 620.454 252.824C628.886 250.327 636.921 248.444 643.127 248.223Z" fill="white"/>
<path d="M1137.26 402.859C1110.14 434.655 1068.12 515.609 1059.35 647.643C1055.11 647.438 1050.47 647.166 1045.46 646.873L1045.46 646.873L1045.45 646.872L1045.45 646.872C1039.14 646.502 1032.24 646.098 1024.81 645.751C1005.61 644.855 983.816 644.427 963.261 646.527C942.962 648.6 922.334 653.271 906.467 663.666C889.82 674.573 879.047 691.439 878.924 715.051C876.288 760.096 877.6 778.757 878.425 790.481C878.701 794.408 878.923 797.556 878.923 800.657H905.547C905.547 795.904 905.265 791.912 904.938 787.29C904.103 775.476 902.977 759.542 905.524 716.241L905.547 715.85V715.459C905.547 701.123 911.386 692.273 921.058 685.937C931.606 679.026 947.168 674.933 965.967 673.013C984.511 671.119 1004.72 671.467 1023.57 672.347C1030.04 672.648 1036.49 673.024 1042.65 673.383C1048.07 673.698 1053.27 674.001 1058.07 674.23C1056.9 712.877 1058.54 755.521 1064.05 802.218L1090.5 799.097C1084.5 748.289 1083.23 702.61 1085.2 661.967C1091.75 526.75 1134.13 447.556 1157.51 420.135L1137.26 402.859Z" fill="white"/>
<path fill-rule="evenodd" clip-rule="evenodd" d="M406.783 572.131C406.783 546.399 427.643 525.538 453.376 525.538C479.108 525.538 499.969 546.399 499.969 572.131C499.969 597.864 479.108 618.724 453.376 618.724C427.643 618.724 406.783 597.864 406.783 572.131ZM453.376 578.787C457.052 578.787 460.032 575.807 460.032 572.131C460.032 568.455 457.052 565.475 453.376 565.475C449.7 565.475 446.72 568.455 446.72 572.131C446.72 575.807 449.7 578.787 453.376 578.787Z" fill="white"/>
<path d="M339.773 1042.94V901.706H364.925L406.714 995.926H409.81L451.406 901.706H476.751V1042.94H457.791V925.869L419.096 1013.73H395.88L357.186 926.292V1042.94H339.773Z" fill="white"/>
<path fill-rule="evenodd" clip-rule="evenodd" d="M577.534 1042.94V1022.47C576.643 1025.43 575.482 1028.13 574.051 1030.56C571.214 1035.46 567.216 1039.2 562.056 1041.78C557.026 1044.36 550.899 1045.65 543.677 1045.65C535.938 1045.65 529.231 1044.36 523.556 1041.78C518.009 1039.07 513.689 1035.2 510.593 1030.17C507.626 1025.14 506.143 1019.08 506.143 1011.98C506.143 1004.63 507.755 998.506 510.98 993.605C514.333 988.703 519.17 985.027 525.49 982.577C531.81 979.997 539.42 978.707 548.32 978.707H574.438V976.192C574.438 969.098 572.568 963.746 568.828 960.134C565.216 956.523 559.864 954.717 552.77 954.717C548.771 954.717 544.644 954.782 540.388 954.91C536.131 955.039 532.068 955.168 528.199 955.297C524.329 955.426 520.976 955.62 518.138 955.878V939.626C520.976 939.368 523.943 939.175 527.038 939.046C530.263 938.788 533.552 938.659 536.905 938.659C540.259 938.53 543.483 938.465 546.579 938.465C557.155 938.465 565.797 939.755 572.504 942.335C579.211 944.785 584.176 948.848 587.401 954.524C590.625 960.199 592.238 967.873 592.238 977.547V1042.94H577.534ZM574.438 992.637V1004.63C574.18 1011.34 572.697 1016.63 569.989 1020.5C567.409 1024.24 564.12 1026.95 560.122 1028.62C556.123 1030.17 551.931 1030.94 547.546 1030.94C540.065 1030.94 534.325 1029.2 530.327 1025.72C526.329 1022.24 524.329 1017.66 524.329 1011.98C524.329 1006.31 526.329 1001.67 530.327 998.054C534.325 994.443 540.065 992.637 547.546 992.637H574.438Z" fill="white"/>
<path d="M626.326 1042.94V939.626H641.03V970.467C642.356 961.241 645.387 954.121 650.123 949.106C656.83 942.012 666.826 938.465 680.111 938.465H683.594V955.104H677.016C666.697 955.104 658.765 957.877 653.219 963.423C647.673 968.84 644.9 976.708 644.9 987.027V1042.94H626.326Z" fill="white"/>
<path fill-rule="evenodd" clip-rule="evenodd" d="M783.676 1081.63V1026.13C779.631 1032.85 774.472 1037.88 768.198 1041.2C761.749 1044.68 754.655 1046.42 746.916 1046.42C739.564 1046.42 732.793 1045 726.602 1042.17C720.54 1039.33 715.251 1035.39 710.737 1030.36C706.352 1025.33 702.934 1019.59 700.483 1013.15C698.033 1006.57 696.807 999.602 696.807 992.25V988.768C696.807 981.416 698.033 974.58 700.483 968.26C702.934 961.94 706.416 956.394 710.931 951.621C715.445 946.72 720.798 942.915 726.989 940.207C733.18 937.498 740.08 936.144 747.69 936.144C756.461 936.144 764.135 938.014 770.713 941.754C777.42 945.495 782.708 950.912 786.578 958.006C786.913 958.621 787.236 959.248 787.545 959.886V939.626H802.249V1081.63H783.676ZM750.205 1029.4C756.525 1029.4 762.265 1027.98 767.424 1025.14C772.583 1022.3 776.711 1018.24 779.806 1012.95C782.902 1007.53 784.449 1001.21 784.449 993.992V985.092C784.449 977.998 782.837 972 779.613 967.099C776.517 962.069 772.325 958.264 767.037 955.684C761.878 952.976 756.267 951.621 750.205 951.621C743.24 951.621 737.114 953.234 731.825 956.458C726.666 959.683 722.603 964.262 719.637 970.195C716.799 975.999 715.38 982.77 715.38 990.509C715.38 998.248 716.864 1005.08 719.83 1011.02C722.797 1016.82 726.924 1021.34 732.212 1024.56C737.501 1027.78 743.498 1029.4 750.205 1029.4Z" fill="white"/>
<path d="M873.727 1046.04C861.474 1046.04 852.059 1042.04 845.48 1034.04C838.902 1026.04 835.613 1014.5 835.613 999.409V939.433H854.187V1003.08C854.187 1011.21 856.379 1017.6 860.765 1022.24C865.15 1026.75 871.083 1029.01 878.564 1029.01C886.303 1029.01 892.623 1026.56 897.524 1021.66C902.425 1016.63 904.876 1009.79 904.876 1001.15V939.433H923.449V1042.94H908.745V1019.09C908.246 1021.01 907.665 1022.83 907.004 1024.56C904.296 1031.52 900.233 1036.88 894.816 1040.62C889.527 1044.23 882.756 1046.04 874.501 1046.04H873.727Z" fill="white"/>
<path fill-rule="evenodd" clip-rule="evenodd" d="M1003.34 1046.42C994.31 1046.42 986.507 1044.87 979.929 1041.78C973.351 1038.68 967.998 1034.62 963.871 1029.59C959.744 1024.43 956.648 1018.69 954.584 1012.37C952.65 1006.05 951.682 999.602 951.682 993.024V989.542C951.682 982.835 952.65 976.321 954.584 970.001C956.648 963.681 959.744 958.006 963.871 952.976C967.998 947.817 973.222 943.754 979.542 940.787C985.991 937.692 993.537 936.144 1002.18 936.144C1013.4 936.144 1022.62 938.594 1029.84 943.496C1037.2 948.268 1042.61 954.459 1046.1 962.069C1049.71 969.679 1051.51 977.805 1051.51 986.446V994.765H969.571C969.884 1000.75 971.015 1006.23 972.964 1011.21C975.415 1017.01 979.155 1021.66 984.185 1025.14C989.216 1028.49 995.6 1030.17 1003.34 1030.17C1011.46 1030.17 1018.04 1028.36 1023.07 1024.75C1028.23 1021.14 1031.33 1016.95 1032.36 1012.18H1049.77C1048.35 1019.27 1045.52 1025.4 1041.26 1030.56C1037 1035.72 1031.65 1039.65 1025.2 1042.36C1018.75 1045.07 1011.46 1046.42 1003.34 1046.42ZM972.964 971.162C971.77 974.148 970.883 977.372 970.303 980.836H1033.26C1032.73 976.608 1031.72 972.803 1030.23 969.421C1027.91 964.004 1024.43 959.812 1019.78 956.845C1015.14 953.879 1009.27 952.395 1002.18 952.395C994.826 952.395 988.7 954.072 983.798 957.426C979.026 960.779 975.415 965.358 972.964 971.162Z" fill="white"/>
<path fill-rule="evenodd" clip-rule="evenodd" d="M1121.8 1046.42C1112.77 1046.42 1104.97 1044.87 1098.39 1041.78C1091.81 1038.68 1086.46 1034.62 1082.33 1029.59C1078.21 1024.43 1075.11 1018.69 1073.05 1012.37C1071.11 1006.05 1070.15 999.602 1070.15 993.024V989.542C1070.15 982.835 1071.11 976.321 1073.05 970.001C1075.11 963.681 1078.21 958.006 1082.33 952.976C1086.46 947.817 1091.69 943.754 1098.01 940.787C1104.45 937.692 1112 936.144 1120.64 936.144C1131.86 936.144 1141.08 938.594 1148.31 943.496C1155.66 948.268 1161.08 954.459 1164.56 962.069C1168.17 969.679 1169.98 977.805 1169.98 986.446V994.765H1088.03C1088.35 1000.75 1089.48 1006.23 1091.43 1011.21C1093.88 1017.01 1097.62 1021.66 1102.65 1025.14C1107.68 1028.49 1114.06 1030.17 1121.8 1030.17C1129.93 1030.17 1136.51 1028.36 1141.54 1024.75C1146.7 1021.14 1149.79 1016.95 1150.82 1012.18H1168.24C1166.82 1019.27 1163.98 1025.4 1159.72 1030.56C1155.47 1035.72 1150.11 1039.65 1143.66 1042.36C1137.22 1045.07 1129.93 1046.42 1121.8 1046.42ZM1091.43 971.162C1090.23 974.148 1089.35 977.372 1088.77 980.836H1151.72C1151.19 976.608 1150.18 972.803 1148.69 969.421C1146.37 964.004 1142.89 959.812 1138.25 956.845C1133.6 953.879 1127.74 952.395 1120.64 952.395C1113.29 952.395 1107.16 954.072 1102.26 957.426C1097.49 960.779 1093.88 965.358 1091.43 971.162Z" fill="white"/>
<path d="M383.124 1147.81H343.746V1182.74H380.87V1188.09H343.746V1224.87H338V1142.51H383.124V1147.81Z" fill="white"/>
<path d="M487.621 1142.51V1195.8C487.621 1205.23 484.88 1212.63 479.397 1218C473.951 1223.33 466.365 1226 456.638 1226C446.948 1226 439.437 1223.33 434.104 1218C428.771 1212.67 426.104 1205.19 426.104 1195.58V1142.51H431.907V1195.8C431.907 1203.69 434.104 1209.87 438.498 1214.34C442.892 1218.73 449.051 1220.93 456.976 1220.93C464.9 1220.93 471.04 1218.77 475.397 1214.45C479.716 1210.13 481.875 1204.1 481.875 1196.37V1142.51H487.621Z" fill="white"/>
<path fill-rule="evenodd" clip-rule="evenodd" d="M541.249 1142.51H560.854C571.031 1142.51 578.561 1144.39 583.444 1148.15C588.364 1151.9 590.824 1157.59 590.824 1165.22C590.824 1170.81 589.34 1175.49 586.373 1179.24C583.444 1183 579.05 1185.7 573.191 1187.35L595.556 1224.87H588.683L567.445 1188.99H546.996V1224.87H541.249V1142.51ZM546.996 1147.7V1184.03H562.713C569.736 1184.03 575.125 1182.47 578.881 1179.36C582.674 1176.24 584.57 1171.6 584.57 1165.44C584.57 1159.28 582.693 1154.79 578.937 1151.98C575.219 1149.12 569.116 1147.7 560.628 1147.7H546.996Z" fill="white"/>
<path d="M700.898 1224.87H695.096L646.311 1151.75H645.86C646.311 1160.46 646.536 1167.04 646.536 1171.47V1224.87H641.015V1142.51H646.761L695.49 1215.52H695.828C695.49 1208.76 695.321 1202.34 695.321 1196.26V1142.51H700.898V1224.87Z" fill="white"/>
<path d="M761.174 1224.87H755.428V1142.51H761.174V1224.87Z" fill="white"/>
<path d="M863.869 1147.92H837.11V1224.87H831.308V1147.92H804.493V1142.51H863.869V1147.92Z" fill="white"/>
<path d="M967.86 1142.51V1195.8C967.86 1205.23 965.118 1212.63 959.635 1218C954.189 1223.33 946.603 1226 936.876 1226C927.186 1226 919.675 1223.33 914.342 1218C909.009 1212.67 906.343 1205.19 906.343 1195.58V1142.51H912.145V1195.8C912.145 1203.69 914.342 1209.87 918.736 1214.34C923.13 1218.73 929.289 1220.93 937.214 1220.93C945.138 1220.93 951.279 1218.77 955.635 1214.45C959.954 1210.13 962.113 1204.1 962.113 1196.37V1142.51H967.86Z" fill="white"/>
<path fill-rule="evenodd" clip-rule="evenodd" d="M1021.49 1142.51H1041.09C1051.27 1142.51 1058.8 1144.39 1063.68 1148.15C1068.6 1151.9 1071.06 1157.59 1071.06 1165.22C1071.06 1170.81 1069.58 1175.49 1066.61 1179.24C1063.68 1183 1059.29 1185.7 1053.43 1187.35L1075.79 1224.87H1068.92L1047.68 1188.99H1027.23V1224.87H1021.49V1142.51ZM1027.23 1147.7V1184.03H1042.95C1049.97 1184.03 1055.36 1182.47 1059.12 1179.36C1062.91 1176.24 1064.81 1171.6 1064.81 1165.44C1064.81 1159.28 1062.93 1154.79 1059.18 1151.98C1055.46 1149.12 1049.35 1147.7 1040.87 1147.7H1027.23Z" fill="white"/>
<path d="M1166.26 1147.81H1127V1178.96H1164.07V1184.26H1127V1219.63H1166.26V1224.87H1121.25V1142.51H1166.26V1147.81Z" fill="white"/>
</svg>
