<svg width="90" height="90" viewBox="0 0 90 90" fill="none" xmlns="http://www.w3.org/2000/svg">
<path d="M19.0713 6.73486L15.13 10.6706L20.9944 16.5323L24.9302 12.5965L19.0685 6.73486H19.0713ZM70.508 6.73486L64.6435 12.5965L68.5821 16.5323L74.4437 10.6734L70.5052 6.73486H70.508ZM44.7882 8.48161C43.8645 8.49281 42.9295 8.54599 41.989 8.66076C41.961 8.66076 41.933 8.65516 41.905 8.66076C30.5512 9.96242 21.5151 19.1356 19.9447 30.4391C18.6906 39.5367 22.4417 47.7862 28.6924 53.0992C31.2493 55.2814 32.9788 58.2758 33.5912 61.581V78.3766H39.9735C40.9476 80.0478 42.7252 81.1759 44.7882 81.1759C46.8513 81.1759 48.6288 80.0478 49.603 78.3766H55.9853V67.1795H56.2485V63.854C56.2485 59.7503 58.3815 55.613 61.847 52.3966C66.4826 47.7554 69.9817 41.1631 69.9817 33.5911C69.9817 19.7627 58.5999 8.35284 44.7882 8.48161V8.48161ZM44.7882 14.0802C55.6074 13.929 64.3831 22.7859 64.3831 33.5911C64.3831 39.4528 61.6679 44.6146 57.9084 48.3712L57.998 48.4608C54.262 51.9059 51.8463 56.5474 51.1678 61.5838H38.9238C38.3079 56.7858 36.2505 52.1419 32.3623 48.8107C27.416 44.6118 24.4683 38.2855 25.4537 31.1417C26.677 22.324 33.8319 15.2335 42.5992 14.2621C43.3231 14.1612 44.052 14.1014 44.7827 14.083L44.7882 14.0802ZM5.59845 33.5911V39.1896H13.9963V33.5911H5.59845ZM75.5802 33.5911V39.1896H83.978V33.5911H75.5802ZM20.9944 56.2484L15.1328 62.1073L19.0713 66.0458L24.9274 60.1842L20.9944 56.2484ZM68.5821 56.2484L64.6463 60.1842L70.5052 66.0458L74.4437 62.1073L68.5821 56.2484ZM39.1897 67.1823H50.3868V72.7809H39.1897V67.1823Z" fill="white"/>
</svg>
