<svg width="93" height="93" viewBox="0 0 93 93" fill="none" xmlns="http://www.w3.org/2000/svg">
<path d="M87.1876 31.0387L81.3751 13.6012C81.1729 12.9996 80.7794 12.4808 80.2546 12.124C79.7298 11.7671 79.1026 11.5918 78.4689 11.6249H14.5314C13.8976 11.5918 13.2705 11.7671 12.7457 12.124C12.2209 12.4808 11.8274 12.9996 11.6252 13.6012L5.81265 31.0387C5.77078 31.3473 5.77078 31.6601 5.81265 31.9687V49.4062C5.81265 50.1769 6.11885 50.9162 6.66387 51.4612C7.2089 52.0062 7.94812 52.3124 8.7189 52.3124H11.6252V81.3749H17.4377V52.3124H34.8751V81.3749H81.3751V52.3124H84.2814C85.0522 52.3124 85.7914 52.0062 86.3364 51.4612C86.8814 50.9162 87.1876 50.1769 87.1876 49.4062V31.9687C87.2295 31.6601 87.2295 31.3473 87.1876 31.0387V31.0387ZM75.5626 75.5624H40.6876V52.3124H75.5626V75.5624ZM81.3751 46.4999H69.7501V34.8749H63.9376V46.4999H49.4064V34.8749H43.5939V46.4999H29.0626V34.8749H23.2501V46.4999H11.6252V32.4337L16.6239 17.4374H76.3764L81.3751 32.4337V46.4999Z" fill="white"/>
</svg>
